<svg id="구성_요소_9_1" data-name="구성 요소 9 – 1" xmlns="http://www.w3.org/2000/svg" xmlns:xlink="http://www.w3.org/1999/xlink" width="183.118" height="180.24" viewBox="0 0 183.118 180.24">
  <defs>
    <clipPath id="clip-path">
      <rect id="사각형_1" data-name="사각형 1" width="183.118" height="180.24"/>
    </clipPath>
  </defs>
  <g id="그룹_2" data-name="그룹 2">
    <g id="그룹_1" data-name="그룹 1" clip-path="url(#clip-path)">
      <path id="패스_1" data-name="패스 1" d="M51.369,67.983a2.681,2.681,0,0,0,2.3-1.3l4.84-8.039,6.413,10.19a2.681,2.681,0,0,0,4.6-.1L79.839,50.7,93.7,75.97a2.683,2.683,0,0,0,2.3,1.392h.048a2.685,2.685,0,0,0,2.3-1.31L107,61.551h20.83a2.683,2.683,0,0,0,0-5.365H105.474a2.687,2.687,0,0,0-2.3,1.31L96.151,69.277,82.241,43.926a2.684,2.684,0,0,0-2.327-1.392h-.025a2.682,2.682,0,0,0-2.327,1.349L67.079,62.2,60.725,52.1a2.678,2.678,0,0,0-2.27-1.252h-.027a2.676,2.676,0,0,0-2.27,1.3L49.853,62.62H34.609a2.682,2.682,0,1,0,0,5.364Z" transform="translate(18.754 24.985)"/>
      <path id="패스_2" data-name="패스 2" d="M100.235,11.669a2.683,2.683,0,0,0-2.683,2.683v7.912H89.641a2.683,2.683,0,1,0,0,5.365h7.912v7.912a2.683,2.683,0,1,0,5.365,0V27.629h7.912a2.683,2.683,0,0,0,0-5.365h-7.912V14.352a2.683,2.683,0,0,0-2.683-2.683" transform="translate(51.08 6.855)"/>
      <path id="패스_3" data-name="패스 3" d="M160.776,110.425c13.071-13.961,16.827-35.1,9.64-53.2A31.8,31.8,0,1,0,131.462,6.961a2.683,2.683,0,1,0,3.346,4.2,26.17,26.17,0,0,1,16.514-5.8,26.432,26.432,0,0,1,14.615,48.449,26.173,26.173,0,0,1-14.615,4.438,26.48,26.48,0,0,1-26.267-23.46.208.208,0,0,1-.014-.1L125,34.3a24.591,24.591,0,0,1-.127-2.508,26.2,26.2,0,0,1,2.764-11.766,2.685,2.685,0,0,0-4.805-2.4A31.557,31.557,0,0,0,119.512,31.8c0,.454.014.906.029,1.346a50.907,50.907,0,0,0-18.4,11.61l-2.962,2.919c-.014-.016-.029-.016-.043-.041l-2.919-2.878C85.8,35.468,73.442,30.278,61.35,30.52a35.584,35.584,0,0,0-25.77,11.4,2.688,2.688,0,0,0,.141,3.8.382.382,0,0,0,.071.043,2.65,2.65,0,0,0,3.713-.171,30.272,30.272,0,0,1,21.959-9.709c10.659-.213,21.589,4.408,29.994,12.7l2.921,2.878c1.418,1.389,2.608,2.083,3.813,2.083s2.367-.681,3.742-2.043l2.978-2.918a45.455,45.455,0,0,1,15.323-9.966,31.834,31.834,0,0,0,45.546,21.519c5.939,15.976,2.522,34.374-8.9,46.608l-38.5,39.406-3.189.624c-.779.157-1.46.3-2.07.413a20.56,20.56,0,0,1-9.753.284l-22.935-4.2c-3.134-1.075-2.821-3.572-2.637-4.321a3.273,3.273,0,0,1,3.686-2.68.152.152,0,0,1,.056.013c1.035.127,2.141.27,3.3.425,4.338.554,9.256,1.191,13.637,1.63,8.929.908,13.99-3.786,15.039-8.845,1.078-5.145-1.872-12.006-10.844-14.869-.1-.03-.213-.057-.327-.086l-14.771-2.692c-8.023-1.489-14.26-.354-23.7,1.359q-3.743.7-8.491,1.489l-6.989,1.164-2.154-2.213-6.748-6.9C26.891,93.23,24.1,72.067,32.7,55.283a2.674,2.674,0,0,0-1.078-3.572.3.3,0,0,1-.07-.043,2.677,2.677,0,0,0-3.616,1.164c-9.624,18.782-6.477,42.455,7.642,57.593.029,0,.041.03.056.043l6.294,6.45-11.723,1.929v-.311a3.934,3.934,0,0,0-4.081-3.757H4.069A3.93,3.93,0,0,0,0,118.535v47.2a3.919,3.919,0,0,0,4.069,3.743H26.126a3.922,3.922,0,0,0,4.081-3.743v-.34L54.32,171.96l22.27,6.054A42.74,42.74,0,0,0,89.5,180.238c5.926,0,10.944-1.616,17.577-3.756.6-.2,1.191-.383,1.814-.6l43.887-14.061c5.089-1.63,8.7-5.3,9.682-9.809a9.571,9.571,0,0,0-2.821-9.215c-2.041-1.841-6.832-4.508-16.061-1.587l-15.933,3.119,33.085-33.866c.014-.013.029-.043.043-.043m-135.941,53.7H5.358V120.137H24.835Zm120.221-17.747c4.948-1.587,8.959-1.445,10.986.4a4.227,4.227,0,0,1,1.176,4.111c-.581,2.608-2.835,4.791-6.081,5.826L107.25,170.783c-.624.2-1.219.4-1.814.6-10.5,3.389-15.763,5.089-27.3,1.5-.029-.014-.057-.014-.086-.029L30.207,159.84V124.275l19.52-3.2,6.534-1.078c3.2-.524,6.053-1.048,8.577-1.5,9.17-1.675,14.7-2.68,21.759-1.376l14.6,2.68c5.7,1.872,7.669,5.754,7.074,8.62-.681,3.289-4.324,5.088-9.256,4.591-4.3-.44-9.172-1.078-13.495-1.614-1.149-.156-2.254-.3-3.289-.441a8.578,8.578,0,0,0-9.653,6.791,9.37,9.37,0,0,0-.227,2.624,8.878,8.878,0,0,0,6.591,8.064c.114.043,1.6.313,1.6.313l21.9,4.011h.071c4.521.708,6.477.652,9.256.156.722-.127,3.672-.722,4.437-.865l.2-.043,4.635-.9s23.913-4.692,24.013-4.723"/>
    </g>
  </g>
</svg>
